Fly_normalized_Motion_pl14
version=1
nRows=16
nColumns=43
inDegrees=yes
endheader
time		pelvis_tilt		pelvis_list		pelvis_rotation		pelvis_tx		pelvis_ty		pelvis_tz		hip_flexion_r		hip_adduction_r		hip_rotation_r		knee_angle_r		ankle_angle_r		subtalar_angle_r		mtp_angle_r		hip_flexion_l		hip_adduction_l		hip_rotation_l		knee_angle_l		ankle_angle_l		subtalar_angle_l		mtp_angle_l		lumbar_extension		lumbar_bending		lumbar_rotation		neck_flexion		neck_lateral_bending		neck_rotation		arm_flex_r		arm_add_r		arm_rot_r		elbow_flex_r		pro_sup_r		wrist_flex_r		wrist_dev_r		hand_finger_flex_r		arm_flex_l		arm_add_l		arm_rot_l		elbow_flex_l		pro_sup_l		wrist_flex_l		wrist_dev_l		hand_finger_flex_l		
1.039167		-3.015364		-6.182838		86.402572		0.034080		1.754482		1.262107		45.097471		-8.233125		6.154474		-85.054467		-23.238523		-26.538903		-21.193403		60.709543		-5.352061		-4.161224		-72.797747		-17.973894		-4.301527		15.863879		-37.339902		-5.003377		2.929289		15.807661		1.577864		-4.363318		83.209315		-36.824444		47.061369		56.937169		106.788226		23.451048		22.285616		-16.964337		80.668194		-28.429387		44.396986		42.307011		115.226306		-2.288437		7.241344		-14.238595		
1.043384		-2.761044		-6.080526		86.337374		0.034162		1.749997		1.253873		45.300077		-7.872860		5.743266		-83.592279		-23.342798		-25.742872		-20.627378		60.075015		-5.649971		-4.186608		-71.131290		-18.260266		-4.546168		15.737401		-37.385671		-4.837515		3.076079		15.579260		1.367083		-4.247330		81.663071		-38.086591		47.315688		57.061919		106.622591		24.053335		22.559959		-16.691215		79.370993		-29.481592		44.896302		42.441914		115.402160		-1.864876		7.147505		-14.108055		
1.047601		-2.753068		-5.737301		86.364609		0.034009		1.745718		1.245201		45.269805		-7.920289		5.445279		-82.212556		-24.162438		-24.405497		-14.564107		59.093332		-5.708126		-4.487585		-69.417232		-18.488969		-4.937763		14.897719		-37.690300		-4.884799		3.091765		15.223559		1.195099		-4.279985		79.436051		-39.552247		46.280443		57.710591		107.076796		25.292860		23.115393		-16.219547		77.906306		-30.328258		44.677912		42.754245		116.580185		-0.825549		7.171801		-13.969863		
1.051818		-2.509031		-5.654170		86.301589		0.034148		1.740702		1.236718		45.463448		-7.612682		4.980286		-80.813818		-24.509433		-23.828921		-14.461309		58.437681		-6.073191		-4.655718		-67.777842		-18.790728		-5.077379		14.773687		-37.662067		-4.752991		3.206857		14.674235		1.086903		-4.170996		77.854451		-40.917174		46.708615		57.791159		106.637343		25.998204		23.082510		-15.915348		76.445969		-31.495074		45.175131		43.068736		116.538975		-0.398393		7.026807		-13.804059		
1.056035		-2.305875		-5.478609		86.321184		0.034168		1.735825		1.228242		45.489105		-7.370607		4.581900		-79.336444		-24.880626		-22.993998		-14.237651		57.650094		-6.288038		-4.789505		-66.085968		-19.096893		-5.410457		14.521526		-37.799031		-4.634199		3.267973		14.477347		0.983973		-4.125307		76.169542		-42.372164		46.811143		57.957228		105.985335		26.974841		23.223562		-15.449902		75.016998		-32.621296		45.529681		43.483262		116.447928		0.272541		7.098396		-13.470806		
1.060253		-2.211184		-5.296119		86.414916		0.034063		1.730758		1.219606		45.477115		-7.274920		4.206969		-77.872619		-25.284988		-22.231365		-14.132836		56.834828		-6.350524		-4.968705		-64.383515		-19.367028		-5.608404		14.230716		-37.915777		-4.595010		3.189897		14.137132		0.985644		-4.108365		74.319965		-43.827963		46.821050		58.084092		105.297741		27.840262		23.273089		-15.007725		73.471317		-33.742118		45.716510		43.921247		116.438938		0.842212		7.117319		-13.108048		
1.064470		-2.131260		-5.141999		86.533810		0.033920		1.725398		1.210876		45.458849		-7.195696		3.829811		-76.421888		-25.632168		-21.501521		-14.125462		56.056028		-6.391489		-5.162189		-62.712341		-19.629531		-5.679492		13.950387		-37.979358		-4.555518		3.064115		13.715771		1.032040		-4.089199		72.381533		-45.258152		46.824147		58.162438		104.597924		28.630325		23.250860		-14.585046		71.791317		-34.906900		45.806934		44.374849		116.557382		1.241052		7.042816		-12.753038		
1.068687		-2.042613		-5.003040		86.665356		0.033824		1.719779		1.202103		45.419222		-7.083736		3.464426		-74.981406		-25.907771		-20.747169		-14.150581		55.303778		-6.436716		-5.338277		-61.070937		-19.891550		-5.623248		13.713399		-38.017580		-4.508326		2.919685		13.250267		1.079298		-4.055542		70.352770		-46.675556		46.791116		58.227250		103.862925		29.397543		23.192129		-14.175232		70.011301		-36.125266		45.830722		44.870245		116.759214		1.477262		6.919992		-12.424043		
1.072904		-1.957461		-4.830245		86.823393		0.033684		1.714153		1.193288		45.273475		-6.960842		3.152374		-73.497517		-26.010059		-19.769313		-14.151081		54.515050		-6.427120		-5.440175		-59.436820		-20.155709		-5.417557		13.441443		-38.142935		-4.457356		2.738311		13.003146		1.140625		-4.009179		68.109232		-48.089651		46.331679		58.343015		102.934212		30.254945		23.190038		-13.689411		68.059695		-37.396543		45.513760		45.536005		117.222956		1.552568		6.835584		-11.930314		
1.077121		-1.849927		-4.629700		86.972986		0.033547		1.708305		1.184318		45.039844		-6.837979		2.799306		-72.024889		-25.838663		-18.709684		-13.936725		53.702884		-6.485326		-5.603112		-57.869491		-20.319558		-4.952748		13.319185		-38.269677		-4.386069		2.582704		12.637412		1.210519		-3.953924		65.617324		-49.442045		45.565625		58.512969		102.165022		31.079000		23.526356		-13.265111		65.930697		-38.589720		44.922087		46.169253		117.942011		1.461917		6.942282		-11.208543		
1.081338		-1.707086		-4.552425		87.075611		0.033554		1.702026		1.175552		44.938050		-6.577516		2.528522		-70.535633		-25.922377		-17.868904		-13.728684		53.057803		-6.607170		-5.722521		-56.335333		-20.655860		-4.430033		13.292371		-38.274427		-4.310391		2.469473		12.346578		1.244553		-3.836639		63.278446		-50.881928		45.229758		58.544813		101.175129		31.858425		23.184693		-12.900366		63.883342		-39.899515		44.746537		46.719350		118.160619		1.287638		6.770254		-10.885681		
1.085556		-1.531537		-4.417885		87.184731		0.033603		1.695705		1.166648		44.714528		-6.308064		2.240684		-69.057255		-25.752614		-16.801616		-13.191441		52.326325		-6.751196		-5.803987		-54.796201		-20.906677		-3.674166		13.407755		-38.359591		-4.210193		2.381064		12.142364		1.292438		-3.692990		60.673562		-52.308993		44.518521		58.644215		100.119098		32.652306		23.037719		-12.570577		61.667416		-41.162810		44.301642		47.308702		118.298397		0.903193		6.795751		-10.540250		
1.089773		-1.356155		-4.269928		87.291694		0.033584		1.689198		1.157621		44.427126		-6.053593		1.951666		-67.562403		-25.567011		-15.719001		-12.307274		51.586360		-6.903486		-5.932239		-53.314096		-21.144238		-2.870162		13.627848		-38.452375		-4.098865		2.311136		11.905191		1.333948		-3.543664		57.848539		-53.731401		43.598188		58.798424		99.137781		33.408523		23.045414		-12.361165		59.339317		-42.364904		43.742365		47.849693		118.386278		0.472303		6.861867		-10.119210		
1.093990		-1.197383		-4.100763		87.392341		0.033714		1.682353		1.148452		44.107110		-5.807274		1.695960		-66.116105		-25.450908		-14.684703		-11.153147		50.850738		-7.028617		-6.018888		-51.898625		-21.436816		-2.090856		13.886693		-38.533843		-4.018642		2.235962		11.636168		1.331312		-3.375489		54.807922		-55.133154		42.534918		58.995868		98.175306		34.177572		23.047784		-12.308777		56.898869		-43.551783		43.086657		48.344343		118.436377		-0.019469		6.854224		-9.658791		
1.098207		-1.063872		-3.913058		87.501916		0.033707		1.675309		1.139164		43.745438		-5.616657		1.443263		-64.692108		-25.363772		-13.683244		-9.774478		50.100235		-7.101791		-6.102548		-50.516785		-21.738458		-1.341207		14.157663		-38.632479		-3.935769		2.135118		11.387986		1.307471		-3.204669		51.530048		-56.496188		41.209401		59.232890		97.259255		34.971637		23.117685		-12.449608		54.291707		-44.697643		42.248252		48.818056		118.519190		-0.573740		6.803461		-9.127434		
1.102424		-1.012251		-3.706113		87.617831		0.033646		1.668041		1.129666		43.350807		-5.548776		1.174418		-63.285523		-25.629723		-12.870912		-6.541729		49.335436		-7.106629		-6.286697		-49.196671		-22.158710		-0.724087		14.701928		-38.750144		-3.924076		2.126480		11.133125		1.195578		-3.213566		47.120434		-57.760804		38.155515		59.805003		96.993304		36.329075		23.965643		-13.504429		51.572965		-45.550631		40.939164		49.244686		119.673427		-0.912865		6.781601		-7.419343		
